<svg width="299" height="299" viewBox="0 0 299 299" fill="none" xmlns="http://www.w3.org/2000/svg">
<rect y="231.36" width="69.5882" height="67.6401" rx="20" fill="#66BFE6"/>
<rect x="78.0002" y="155.265" width="69.5882" height="143.735" rx="20" fill="#66BFE6"/>
<rect x="153.706" y="155.265" width="69.5882" height="143.735" rx="20" fill="#66BFE6"/>
<rect x="229.411" y="76.8636" width="69.5882" height="222.136" rx="20" fill="#66BFE6"/>
<rect y="152.959" width="69.5882" height="67.6401" rx="10" fill="#66BFE6"/>
<rect x="78.0002" y="76.0951" width="69.5882" height="67.6401" rx="10" fill="#66BFE6"/>
<rect x="229.411" width="69.5882" height="67.6401" rx="10" fill="#66BFE6"/>
<rect opacity="0.2" x="15.2942" y="231.36" width="54.2941" height="67.6401" rx="20" fill="url(#paint0_linear_116_163)"/>
<rect opacity="0.2" x="93.2939" y="155.265" width="54.2941" height="143.735" rx="20" fill="url(#paint1_linear_116_163)"/>
<rect opacity="0.2" x="169" y="155.265" width="54.2941" height="143.735" rx="20" fill="url(#paint2_linear_116_163)"/>
<rect opacity="0.3" x="244.706" y="76.8636" width="54.2941" height="222.136" rx="20" fill="url(#paint3_linear_116_163)"/>
<rect opacity="0.3" x="244.706" width="54.2941" height="67.6401" rx="10" fill="url(#paint4_linear_116_163)"/>
<rect width="40.3657" height="14.1361" transform="matrix(0.778228 -0.627981 0.624077 0.781363 206.024 79.3882)" fill="#66BFE6"/>
<rect opacity="0.2" width="37.9188" height="14.0283" transform="matrix(0.778228 -0.627981 0.624077 0.781363 207.995 77.9358)" fill="url(#paint5_linear_116_163)"/>
<rect x="130.219" y="109.235" width="34.0591" height="12.7462" fill="#66BFE6"/>
<rect x="153.706" y="76.8636" width="69.5882" height="67.6401" rx="10" fill="#66BFE6"/>
<rect opacity="0.3" x="169" y="76.8636" width="54.2941" height="67.6401" rx="10" fill="url(#paint6_linear_116_163)"/>
<rect width="34.1279" height="12.7207" transform="matrix(0.778228 -0.627981 0.624077 0.781363 55.0586 155.175)" fill="#66BFE6"/>
<defs>
<linearGradient id="paint0_linear_116_163" x1="15.2942" y1="265.18" x2="69.5883" y2="265.18" gradientUnits="userSpaceOnUse">
<stop stop-color="#66BFE6"/>
<stop offset="0.442308" stop-color="#298BD0"/>
<stop offset="1" stop-color="#0169C2"/>
</linearGradient>
<linearGradient id="paint1_linear_116_163" x1="93.2939" y1="227.132" x2="147.588" y2="227.132" gradientUnits="userSpaceOnUse">
<stop stop-color="#66BFE6"/>
<stop offset="0.442308" stop-color="#298BD0"/>
<stop offset="1" stop-color="#0169C2"/>
</linearGradient>
<linearGradient id="paint2_linear_116_163" x1="169" y1="227.132" x2="223.294" y2="227.132" gradientUnits="userSpaceOnUse">
<stop stop-color="#66BFE6"/>
<stop offset="0.442308" stop-color="#298BD0"/>
<stop offset="1" stop-color="#0169C2"/>
</linearGradient>
<linearGradient id="paint3_linear_116_163" x1="244.706" y1="187.932" x2="299" y2="187.932" gradientUnits="userSpaceOnUse">
<stop stop-color="#66BFE6"/>
<stop offset="0.442308" stop-color="#298BD0"/>
<stop offset="1" stop-color="#0169C2"/>
</linearGradient>
<linearGradient id="paint4_linear_116_163" x1="244.706" y1="33.82" x2="299" y2="33.82" gradientUnits="userSpaceOnUse">
<stop stop-color="#66BFE6"/>
<stop offset="0.442308" stop-color="#298BD0"/>
<stop offset="1" stop-color="#0169C2"/>
</linearGradient>
<linearGradient id="paint5_linear_116_163" x1="37.9349" y1="7.88409" x2="20.2085" y2="28.9574" gradientUnits="userSpaceOnUse">
<stop stop-color="#66BFE6"/>
<stop offset="0.423077" stop-color="#4F93B1"/>
<stop offset="0.725962" stop-color="#396A80"/>
</linearGradient>
<linearGradient id="paint6_linear_116_163" x1="169" y1="110.684" x2="223.294" y2="110.684" gradientUnits="userSpaceOnUse">
<stop stop-color="#66BFE6"/>
<stop offset="0.442308" stop-color="#298BD0"/>
<stop offset="1" stop-color="#0169C2"/>
</linearGradient>
</defs>
</svg>
